<svg width="20" height="21" viewBox="0 0 20 21" fill="none" xmlns="http://www.w3.org/2000/svg">
<path d="M9.95826 12.6162C7.08327 12.6162 4.65747 13.086 4.65747 14.8991C4.65747 16.713 7.09894 17.1663 9.95826 17.1663C12.8332 17.1663 15.259 16.6965 15.259 14.8834C15.259 13.0695 12.8176 12.6162 9.95826 12.6162" fill="#8A92A6"/>
<path opacity="0.4" d="M9.9583 10.8889C11.9051 10.8889 13.466 9.3189 13.466 7.36094C13.466 5.40223 11.9051 3.83301 9.9583 3.83301C8.01155 3.83301 6.45056 5.40223 6.45056 7.36094C6.45056 9.3189 8.01155 10.8889 9.9583 10.8889" fill="#D0D3DB"/>
<path opacity="0.4" d="M17.5744 8.18245C18.0781 6.20122 16.6014 4.42188 14.7211 4.42188C14.5166 4.42188 14.3211 4.44439 14.1301 4.48266C14.1047 4.48867 14.0764 4.50142 14.0614 4.52394C14.0443 4.55246 14.057 4.59073 14.0756 4.61549C14.6405 5.41249 14.9651 6.38284 14.9651 7.42448C14.9651 8.4226 14.6673 9.35317 14.145 10.1254C14.0913 10.2049 14.139 10.3123 14.2338 10.3288C14.3651 10.352 14.4994 10.364 14.6367 10.3678C16.006 10.4038 17.2349 9.51752 17.5744 8.18245" fill="#D0D3DB"/>
<path d="M19.0087 12.8474C18.758 12.3101 18.1528 11.9416 17.2328 11.7607C16.7985 11.6541 15.6233 11.5041 14.5302 11.5243C14.5138 11.5266 14.5048 11.5378 14.5033 11.5453C14.5011 11.5558 14.5056 11.5738 14.5272 11.5851C15.0324 11.8365 16.9851 12.9299 16.7396 15.2361C16.7291 15.3359 16.809 15.4222 16.9082 15.4072C17.3888 15.3382 18.6252 15.071 19.0087 14.2387C19.2206 13.799 19.2206 13.2879 19.0087 12.8474" fill="#8A92A6"/>
<path opacity="0.4" d="M5.87167 4.48266C5.6814 4.44364 5.48515 4.42188 5.2807 4.42188C3.40036 4.42188 1.92369 6.20122 2.4281 8.18245C2.76686 9.51752 3.9958 10.4038 5.36502 10.3678C5.50232 10.364 5.63737 10.3513 5.76795 10.3288C5.86272 10.3123 5.91047 10.2049 5.85675 10.1254C5.33443 9.35242 5.03671 8.4226 5.03671 7.42448C5.03671 6.38209 5.36204 5.41174 5.92689 4.61549C5.94479 4.59073 5.95823 4.55246 5.94032 4.52394C5.92539 4.50067 5.89779 4.48867 5.87167 4.48266" fill="#D0D3DB"/>
<path d="M2.76874 11.7601C1.84871 11.941 1.24431 12.3094 0.9936 12.8468C0.780942 13.2873 0.780942 13.7984 0.9936 14.2389C1.37713 15.0704 2.61353 15.3383 3.09407 15.4066C3.19331 15.4216 3.2724 15.3361 3.26195 15.2355C3.01646 12.9301 4.96919 11.8366 5.47509 11.5852C5.49598 11.5732 5.50046 11.556 5.49822 11.5447C5.49673 11.5372 5.48852 11.526 5.47211 11.5244C4.37822 11.5034 3.20375 11.6535 2.76874 11.7601" fill="#8A92A6"/>
</svg>
