<svg width="21" height="21" viewBox="0 0 21 21" fill="none" xmlns="http://www.w3.org/2000/svg">
<path opacity="0.4" d="M13.5348 2.40625H16.2751C17.4101 2.40625 18.3297 3.33363 18.3297 4.47813V7.24166C18.3297 8.38616 17.4101 9.31354 16.2751 9.31354H13.5348C12.3998 9.31354 11.4802 8.38616 11.4802 7.24166V4.47813C11.4802 3.33363 12.3998 2.40625 13.5348 2.40625Z" fill="#8A92A6"/>
<path fill-rule="evenodd" clip-rule="evenodd" d="M4.19686 2.40625H6.93725C8.07216 2.40625 8.99178 3.33363 8.99178 4.47813V7.24166C8.99178 8.38616 8.07216 9.31354 6.93725 9.31354H4.19686C3.06195 9.31354 2.14233 8.38616 2.14233 7.24166V4.47813C2.14233 3.33363 3.06195 2.40625 4.19686 2.40625ZM4.19686 11.6857H6.93725C8.07216 11.6857 8.99178 12.6131 8.99178 13.7575V16.5211C8.99178 17.6648 8.07216 18.593 6.93725 18.593H4.19686C3.06195 18.593 2.14233 17.6648 2.14233 16.5211V13.7575C2.14233 12.6131 3.06195 11.6857 4.19686 11.6857ZM16.2751 11.6857H13.5347C12.3998 11.6857 11.4802 12.6131 11.4802 13.7575V16.5211C11.4802 17.6648 12.3998 18.593 13.5347 18.593H16.2751C17.4101 18.593 18.3297 17.6648 18.3297 16.5211V13.7575C18.3297 12.6131 17.4101 11.6857 16.2751 11.6857Z" fill="#8A92A6"/>
</svg>
