<svg width="21" height="21" viewBox="0 0 21 21" fill="none" xmlns="http://www.w3.org/2000/svg">
<g clip-path="url(#clip0_188:4846)">
<path opacity="0.4" d="M10.4631 17.1217L3.97137 20.3643C3.48113 20.6304 2.86961 20.4527 2.59541 19.9645C2.51533 19.811 2.47298 19.6404 2.47192 19.467V12.209C2.47192 12.9286 2.87766 13.3728 3.94491 13.8702L10.4631 17.1217Z" fill="#8A92A6"/>
<path fill-rule="evenodd" clip-rule="evenodd" d="M7.36718 0.5H13.5414C16.2492 0.5 18.4455 1.56605 18.4719 4.29337V19.4668C18.4708 19.6374 18.4285 19.8051 18.3484 19.9554C18.2199 20.2007 17.9979 20.3827 17.7334 20.4598C17.4689 20.5368 17.1847 20.5023 16.946 20.3641L10.4631 17.1215L3.94491 13.8701C2.87766 13.3726 2.47192 12.9284 2.47192 12.2088V4.29337C2.47192 1.56605 4.66817 0.5 7.36718 0.5ZM6.69684 8.12227H14.2205C14.6541 8.12227 15.0056 7.76828 15.0056 7.33162C15.0056 6.89495 14.6541 6.54096 14.2205 6.54096H6.69684C6.26329 6.54096 5.91184 6.89495 5.91184 7.33162C5.91184 7.76828 6.26329 8.12227 6.69684 8.12227Z" fill="#8A92A6"/>
</g>
<defs>
<clipPath id="clip0_188:4846">
<rect width="20" height="20" fill="white" transform="translate(0.471924 0.5)"/>
</clipPath>
</defs>
</svg>
